<?xml version="1.0" encoding="utf-8"?>
<!-- Generator: Adobe Illustrator 19.0.1, SVG Export Plug-In . SVG Version: 6.00 Build 0)  -->
<svg version="1.1" id="Layer_1" xmlns="http://www.w3.org/2000/svg" xmlns:xlink="http://www.w3.org/1999/xlink" x="0px" y="0px"
	 viewBox="0 0 32 32" style="enable-background:new 0 0 32 32;" xml:space="preserve">
<style type="text/css">
	.st0{fill:#FFFFFF;}
	.st1{fill:#777777;}
</style>
<path class="st0" d="M32,32H0V0h32V32z M2,30h28v-4H2V30z"/>
<g>
	<g>
		<path class="st1" d="M20.9,9.7C19.6,9.2,18,9,16.2,9c-1.8,0-3.4,0.3-4.7,0.8c-1.4,0.5-2.1,1.3-2.1,2.1c0,0.1,0,0.3,0.1,0.4
			c0,0,0,0,0,0l0.6,1.5c-0.3,0.3-0.9,0.8-1.5,1.4c-0.9,0.9-1.9,2.1-1.4,3.2c0.3,0.6,1,0.9,2.2,0.9c0.1,0,0.3,0,0.4,0
			c0.4,0,0.9-0.1,1.4-0.1l0.5,2.7c0,0.2,0.1,0.3,0.3,0.4l0.2,0.1c0.1,0,2,0.7,4.1,0.7c2.1,0,4-0.7,4.1-0.7l0.2-0.1
			c0.2-0.1,0.3-0.2,0.3-0.4l1.3-7.4l0.8-2.1c0,0,0,0,0,0c0-0.1,0.1-0.2,0.1-0.4C23,11,22.3,10.3,20.9,9.7z M16.2,10.7
			c1.5,0,3,0.2,4,0.6c0.5,0.2,0.8,0.4,0.9,0.5c-0.1,0.1-0.4,0.3-0.9,0.5c-1,0.4-2.5,0.6-4,0.6c-1.5,0-3-0.2-4-0.6
			c-0.5-0.2-0.8-0.4-0.9-0.5c0.1-0.1,0.4-0.3,0.9-0.5C13.2,11,14.7,10.7,16.2,10.7z M10.5,15.4l0.2,1c0,0.1,0.1,0.2,0.2,0.3
			c0.1,0.1,0.2,0.1,0.4,0.1c1.1-0.2,2.6-0.6,4.4-1.3c0.1,0,0.1-0.1,0.2-0.1c0.1-0.1,0.2-0.2,0.4-0.2c0.3,0,0.5,0.2,0.5,0.5
			c0,0.3-0.2,0.5-0.5,0.5c0,0-0.1,0-0.1,0c-0.1,0-0.2,0-0.2,0C14,17,11,17.7,9.7,17.8c-0.1,0-0.2,0-0.3,0c-0.6,0-0.8-0.1-0.8-0.2
			c-0.1-0.1,0.1-0.5,1-1.4C9.9,15.9,10.2,15.6,10.5,15.4z"/>
	</g>
</g>
</svg>
