<?xml version="1.0" encoding="utf-8"?>
<!-- Generator: Adobe Illustrator 21.1.0, SVG Export Plug-In . SVG Version: 6.00 Build 0)  -->
<svg version="1.1" id="Layer_1" xmlns="http://www.w3.org/2000/svg" xmlns:xlink="http://www.w3.org/1999/xlink" x="0px" y="0px"
	 viewBox="0 0 236.7 81" style="enable-background:new 0 0 236.7 81;" xml:space="preserve">
<style type="text/css">
	.st0{fill:#E62D38;}
	.st1{fill:#FFFFFF;}
</style>
<g>
	<g>
		<path class="st0" d="M231.2,39.2h-0.5V39h1.2v0.2h-0.5v1.3h-0.2V39.2z M232.2,38.9h0.2l0.5,0.8l0.5-0.8h0.2v1.5h-0.2v-1.2
			l-0.5,0.8l0,0l-0.5-0.8v1.2h-0.2V38.9z"/>
	</g>
	<path class="st0" d="M75,4.3h9.8L70,40.4h-4.7h-4.7l-13-36.1h9.8L64.8,27l0.5,2l0.5-2L75,4.3z M132.9,22.3
		c0,10.5-8.6,19.1-19.2,19.1s-19.2-8.5-19.2-19.1c0-10.5,8.6-19.1,19.2-19.1C124.3,3.3,132.9,11.8,132.9,22.3z M122.8,22.3
		c0-5-4.1-9-9.1-9s-9.1,4-9.1,9s4.1,9,9.1,9C118.7,31.3,122.8,27.3,122.8,22.3z M180.5,40.4h-11.3l-7-9.7h-4.7v9.7h-9.2V4.3h9.2H168
		c0,0,8.7,0,11.3,8.9c0,0,0.8,4,0,8.6c-1.3,4.5-4.1,6.7-6.6,7.8L180.5,40.4z M170.9,17.5c-0.1-1-0.5-4.9-4.4-4.9h-9v9.8h9.5
		C170.4,22.1,170.8,18.5,170.9,17.5z M29.6,4.2l11.8,36.2h-9.8l-1.7-5.3H14.7l-2.6,5.3H2.3L20.2,4.2h4.7L29.6,4.2z M27.3,27l-3-9.3
		l-0.4-1.4l-4.1,8.4l-1.1,2.2l0,0L27.3,27L27.3,27z M230.4,40.4h-9.8l-2.6-5.3h-15.2l-1.7,5.3h-9.8l11.8-36.2h4.7h4.7L230.4,40.4z
		 M214,27L214,27l-1.1-2.2l-4.1-8.4l-0.4,1.4l-3,9.3L214,27L214,27z"/>
</g>
<g>
	<path class="st1" d="M2.3,51.3H7v3.4c0.7-1.1,1.7-2,2.8-2.7c1.1-0.7,2.5-1.1,4.1-1.1c1.2,0,2.4,0.2,3.5,0.7c1.1,0.5,2.1,1.1,3,2
		c0.9,0.9,1.6,2,2.1,3.3c0.5,1.3,0.8,2.8,0.8,4.5v0.1c0,1.7-0.3,3.2-0.8,4.5c-0.5,1.3-1.2,2.4-2.1,3.3c-0.9,0.9-1.9,1.6-3,2
		S15.1,72,13.9,72c-1.7,0-3-0.4-4.1-1.1c-1.1-0.7-2-1.5-2.7-2.5v9.3H2.3V51.3z M12.8,68c0.8,0,1.5-0.2,2.2-0.5
		c0.7-0.3,1.3-0.7,1.8-1.3c0.5-0.6,0.9-1.2,1.2-2c0.3-0.8,0.5-1.7,0.5-2.7v-0.1c0-1-0.2-1.9-0.5-2.7c-0.3-0.8-0.7-1.5-1.2-2.1
		c-0.5-0.6-1.1-1-1.8-1.3c-0.7-0.3-1.5-0.5-2.2-0.5c-0.8,0-1.6,0.2-2.3,0.5c-0.7,0.3-1.3,0.8-1.9,1.3c-0.5,0.6-1,1.3-1.3,2.1
		c-0.3,0.8-0.5,1.7-0.5,2.7v0.1c0,1,0.2,1.9,0.5,2.7c0.3,0.8,0.7,1.5,1.3,2.1c0.5,0.6,1.2,1,1.9,1.3C11.2,67.8,12,68,12.8,68z"/>
	<path class="st1" d="M37.7,72c-1.5,0-3-0.3-4.3-0.8c-1.3-0.6-2.5-1.3-3.4-2.3c-1-0.9-1.7-2.1-2.2-3.3c-0.5-1.3-0.8-2.6-0.8-4.1
		v-0.1c0-1.5,0.3-2.8,0.8-4.1c0.6-1.3,1.3-2.4,2.3-3.4c1-1,2.1-1.7,3.4-2.3c1.3-0.6,2.8-0.8,4.3-0.8c1.6,0,3,0.3,4.3,0.8
		c1.3,0.6,2.5,1.3,3.4,2.3c1,1,1.7,2.1,2.2,3.3c0.5,1.3,0.8,2.6,0.8,4.1v0.1c0,1.4-0.3,2.8-0.8,4.1c-0.6,1.3-1.3,2.4-2.3,3.4
		c-1,1-2.1,1.7-3.4,2.3C40.7,71.7,39.3,72,37.7,72z M37.8,68c0.9,0,1.8-0.2,2.5-0.5c0.8-0.4,1.4-0.8,1.9-1.4
		c0.5-0.6,0.9-1.3,1.2-2.1c0.3-0.8,0.4-1.6,0.4-2.5v-0.1c0-0.9-0.2-1.7-0.5-2.5c-0.3-0.8-0.7-1.5-1.3-2.1s-1.2-1.1-1.9-1.4
		c-0.8-0.3-1.6-0.5-2.5-0.5c-0.9,0-1.8,0.2-2.5,0.5c-0.8,0.3-1.4,0.8-1.9,1.4c-0.5,0.6-0.9,1.3-1.2,2.1s-0.4,1.6-0.4,2.5v0.1
		c0,0.9,0.2,1.7,0.5,2.5c0.3,0.8,0.7,1.5,1.3,2.1c0.5,0.6,1.2,1.1,1.9,1.4C36.1,67.8,36.9,68,37.8,68z"/>
	<path class="st1" d="M51.6,51.3h4.8l4.1,13.9l4.5-14h4l4.5,14l4.2-13.9h4.7l-6.7,20.5h-4.2l-4.5-13.9l-4.6,13.9h-4.2L51.6,51.3z"/>
	<path class="st1" d="M95.7,72c-1.5,0-2.8-0.3-4.1-0.8c-1.3-0.5-2.4-1.2-3.3-2.2c-0.9-0.9-1.7-2-2.2-3.3c-0.5-1.3-0.8-2.7-0.8-4.3
		v-0.1c0-1.5,0.2-2.8,0.7-4.1c0.5-1.3,1.2-2.4,2.1-3.4c0.9-1,1.9-1.7,3.1-2.3c1.2-0.6,2.5-0.8,4-0.8c1.6,0,3,0.3,4.2,0.9
		c1.2,0.6,2.2,1.4,3,2.4c0.8,1,1.4,2.2,1.8,3.5c0.4,1.3,0.6,2.7,0.6,4.2c0,0.2,0,0.4,0,0.6c0,0.2,0,0.4-0.1,0.7H90
		c0.3,1.7,0.9,2.9,2,3.8s2.4,1.3,3.9,1.3c1.2,0,2.2-0.2,3-0.6c0.8-0.4,1.7-1,2.5-1.8l2.7,2.4c-1,1.2-2.1,2.1-3.5,2.8
		C99.2,71.7,97.6,72,95.7,72z M100.3,60c-0.1-0.7-0.2-1.4-0.5-2.1c-0.3-0.7-0.6-1.2-1-1.7c-0.4-0.5-1-0.9-1.6-1.1s-1.3-0.4-2.1-0.4
		c-1.4,0-2.6,0.5-3.6,1.5c-0.9,1-1.5,2.3-1.7,3.9H100.3z"/>
	<path class="st1" d="M109.6,51.3h4.7v4.6c0.6-1.5,1.6-2.8,2.7-3.7c1.2-0.9,2.7-1.3,4.5-1.3v4.9h-0.3c-1,0-2,0.2-2.8,0.5
		c-0.8,0.3-1.6,0.8-2.2,1.5c-0.6,0.7-1.1,1.5-1.4,2.5c-0.3,1-0.5,2.2-0.5,3.5v7.7h-4.7V51.3z"/>
	<path class="st1" d="M134.8,72c-1.5,0-2.8-0.3-4.1-0.8c-1.3-0.5-2.4-1.2-3.3-2.2c-0.9-0.9-1.7-2-2.2-3.3c-0.5-1.3-0.8-2.7-0.8-4.3
		v-0.1c0-1.5,0.2-2.8,0.7-4.1c0.5-1.3,1.2-2.4,2.1-3.4c0.9-1,1.9-1.7,3.1-2.3c1.2-0.6,2.5-0.8,4-0.8c1.6,0,3,0.3,4.2,0.9
		c1.2,0.6,2.2,1.4,3,2.4c0.8,1,1.4,2.2,1.8,3.5c0.4,1.3,0.6,2.7,0.6,4.2c0,0.2,0,0.4,0,0.6c0,0.2,0,0.4-0.1,0.7h-14.9
		c0.3,1.7,0.9,2.9,2,3.8s2.4,1.3,3.9,1.3c1.2,0,2.2-0.2,3-0.6c0.8-0.4,1.7-1,2.5-1.8l2.7,2.4c-1,1.2-2.1,2.1-3.5,2.8
		C138.3,71.7,136.7,72,134.8,72z M139.4,60c-0.1-0.7-0.2-1.4-0.5-2.1c-0.3-0.7-0.6-1.2-1-1.7s-1-0.9-1.6-1.1s-1.3-0.4-2.1-0.4
		c-1.4,0-2.6,0.5-3.6,1.5c-0.9,1-1.5,2.3-1.7,3.9H139.4z"/>
	<path class="st1" d="M157.1,72c-1.2,0-2.4-0.2-3.5-0.7c-1.1-0.5-2.1-1.1-3-2c-0.9-0.9-1.6-2-2.1-3.3c-0.5-1.3-0.8-2.8-0.8-4.5v-0.1
		c0-1.7,0.3-3.2,0.8-4.5c0.5-1.3,1.2-2.4,2.1-3.3c0.9-0.9,1.9-1.6,3-2c1.1-0.5,2.3-0.7,3.5-0.7c1.7,0,3,0.4,4.1,1.1s2,1.5,2.8,2.5
		V43.5h4.7v28.1H164l0-3.4c-0.7,1.1-1.7,2-2.8,2.7C160.1,71.6,158.8,72,157.1,72z M158.2,68c0.8,0,1.5-0.2,2.2-0.5
		c0.7-0.3,1.3-0.8,1.9-1.3c0.5-0.6,1-1.3,1.3-2.1c0.3-0.8,0.5-1.7,0.5-2.7v-0.1c0-1-0.2-1.9-0.5-2.7c-0.3-0.8-0.7-1.5-1.3-2.1
		c-0.5-0.6-1.2-1-1.9-1.3c-0.7-0.3-1.5-0.5-2.2-0.5c-0.8,0-1.5,0.1-2.2,0.4c-0.7,0.3-1.3,0.7-1.9,1.3c-0.5,0.6-1,1.3-1.3,2.1
		c-0.3,0.8-0.5,1.7-0.5,2.7v0.1c0,1,0.2,1.9,0.5,2.7c0.3,0.8,0.7,1.5,1.3,2.1c0.5,0.6,1.2,1,1.9,1.3C156.7,67.8,157.4,68,158.2,68z"
		/>
	<path class="st1" d="M197.6,72c-1.7,0-3-0.4-4.1-1.1c-1.1-0.7-2-1.5-2.7-2.5v3.2H186V43.5h4.7l0,11.2c0.7-1.1,1.7-2,2.8-2.7
		c1.1-0.7,2.5-1.1,4.1-1.1c1.2,0,2.4,0.2,3.5,0.7c1.1,0.5,2.1,1.1,3,2c0.9,0.9,1.6,2,2.1,3.3c0.5,1.3,0.8,2.8,0.8,4.5v0.1
		c0,1.7-0.3,3.2-0.8,4.5c-0.5,1.3-1.2,2.4-2.1,3.3c-0.9,0.9-1.9,1.6-3,2C200,71.8,198.8,72,197.6,72z M196.5,68
		c0.8,0,1.5-0.2,2.2-0.5c0.7-0.3,1.3-0.7,1.8-1.3c0.5-0.6,0.9-1.2,1.2-2c0.3-0.8,0.5-1.7,0.5-2.7v-0.1c0-1-0.2-1.9-0.5-2.7
		c-0.3-0.8-0.7-1.5-1.2-2.1c-0.5-0.6-1.1-1-1.8-1.3c-0.7-0.3-1.5-0.5-2.2-0.5c-0.8,0-1.6,0.2-2.3,0.5c-0.7,0.3-1.3,0.8-1.9,1.3
		c-0.5,0.6-1,1.3-1.3,2.1c-0.3,0.8-0.5,1.7-0.5,2.7v0.1c0,1,0.2,1.9,0.5,2.7c0.3,0.8,0.7,1.5,1.3,2.1c0.5,0.6,1.2,1,1.9,1.3
		C195,67.8,195.7,68,196.5,68z"/>
	<path class="st1" d="M215.9,77.8c-1,0-1.8-0.1-2.6-0.3c-0.8-0.2-1.5-0.5-2.2-0.9l1.6-3.5c0.4,0.2,0.9,0.4,1.3,0.6
		c0.4,0.1,0.9,0.2,1.4,0.2c0.7,0,1.2-0.2,1.7-0.5c0.4-0.3,0.8-1,1.2-1.8l-8.5-20.3h5l5.8,15.1l5.3-15.1h4.8l-8.1,20.9
		c-0.4,1.1-0.8,1.9-1.3,2.7c-0.4,0.7-0.9,1.3-1.5,1.8c-0.5,0.4-1.1,0.8-1.8,1C217.5,77.7,216.8,77.8,215.9,77.8z"/>
</g>
</svg>
