<?xml version="1.0" encoding="utf-8"?>
<!-- Generator: Adobe Illustrator 19.0.1, SVG Export Plug-In . SVG Version: 6.00 Build 0)  -->
<svg version="1.1" id="Layer_1" xmlns="http://www.w3.org/2000/svg" xmlns:xlink="http://www.w3.org/1999/xlink" x="0px" y="0px"
	 viewBox="0 0 192 32" style="enable-background:new 0 0 192 32;" xml:space="preserve">
<style type="text/css">
	.st0{fill:#EF3943;}
	.st1{fill:#9B59B6;}
	.st2{fill:#1ABC9C;}
	.st3{fill:#34495E;}
	.st4{fill:#3498DB;}
	.st5{fill:#777777;}
</style>
<rect x="17" y="17" class="st0" width="8.5" height="8.5"/>
<rect x="6.5" y="6.5" class="st1" width="4.5" height="8.5"/>
<rect x="13.8" y="6.5" class="st2" width="4.5" height="8.5"/>
<rect x="21" y="6.5" class="st3" width="4.5" height="8.5"/>
<rect x="6.5" y="17" class="st4" width="8.5" height="8.5"/>
<rect x="110" y="17" class="st5" width="5.5" height="8.5"/>
<rect x="102.5" y="17" class="st0" width="5.5" height="8.5"/>
<rect x="110" y="6.5" class="st4" width="5.5" height="8.5"/>
<rect x="102.5" y="6.5" class="st3" width="5.5" height="8.5"/>
<rect x="38.5" y="11.8" class="st4" width="3.5" height="13.7"/>
<rect x="43.8" y="17.2" class="st0" width="3.5" height="8.3"/>
<rect x="49" y="22.5" class="st3" width="8.5" height="3"/>
<rect x="49" y="17.2" class="st2" width="8.5" height="3"/>
<rect x="43.8" y="11.8" class="st1" width="13.8" height="3"/>
<rect x="38.5" y="6.5" class="st5" width="19" height="3"/>
<rect x="87" y="6.5" class="st2" width="2.5" height="19"/>
<rect x="117.5" y="6.5" class="st2" width="4" height="19"/>
<rect x="82.5" y="6.5" class="st4" width="2.5" height="19"/>
<rect x="78" y="6.5" class="st0" width="2.5" height="19"/>
<rect x="70.5" y="6.5" class="st3" width="5.5" height="19.1"/>
<rect x="134.5" y="6.5" class="st0" width="5" height="19"/>
<rect x="141.5" y="6.5" class="st0" width="5" height="19"/>
<rect x="148.5" y="6.5" class="st0" width="5" height="19"/>
<rect x="166.5" y="6.5" class="st0" width="19" height="5"/>
<rect x="166.5" y="13.5" class="st0" width="19" height="5"/>
<rect x="166.5" y="20.5" class="st0" width="19" height="5"/>
</svg>
