<?xml version="1.0" encoding="utf-8"?>
<!-- Generator: Adobe Illustrator 19.0.1, SVG Export Plug-In . SVG Version: 6.00 Build 0)  -->
<svg version="1.1" id="Layer_1" xmlns="http://www.w3.org/2000/svg" xmlns:xlink="http://www.w3.org/1999/xlink" x="0px" y="0px"
	 viewBox="197 4 500 25" style="enable-background:new 197 4 500 25;" xml:space="preserve">
<style type="text/css">
	.st0{fill:#34495E;}
	.st1{fill:#3498DB;}
	.st2{fill:#1ABC9C;}
	.st3{fill:#F1C40F;}
	.st4{fill:#E74C3C;}
	.st5{fill:#2ECC71;}
	.st6{fill:#9B59B6;}
	.st7{fill:none;}
	.st8{fill:none;stroke:#3498DB;stroke-width:2;stroke-linecap:round;stroke-linejoin:round;stroke-miterlimit:10;}
	.st9{fill:none;stroke:#E62438;stroke-width:2;stroke-linecap:round;stroke-miterlimit:10;}
	.st10{fill:none;stroke:#95A5A6;stroke-width:2;stroke-linecap:round;stroke-linejoin:round;stroke-miterlimit:10;}
	.st11{fill:none;stroke:#E74C3C;stroke-width:2;stroke-linecap:round;stroke-linejoin:round;stroke-miterlimit:10;}
	.st12{fill:none;stroke:#E62438;stroke-width:3;stroke-miterlimit:10;}
	.st13{fill:none;stroke:#3498DB;stroke-width:3;stroke-linejoin:round;stroke-miterlimit:10;}
	.st14{fill:none;stroke:#1ABC9C;stroke-width:3;stroke-linejoin:round;stroke-miterlimit:10;}
	.st15{fill:none;stroke:#34495E;stroke-width:2;stroke-linecap:round;stroke-linejoin:round;stroke-miterlimit:10;}
	.st16{fill:#FFFFFF;}
</style>
<g>
	<g>
		<path class="st0" d="M203.6,22h-2.4v-6.4v-1.1v-1.1c-0.4,0.4-0.7,0.7-0.8,0.8l-1.2,1l-1.1-1.4l3.5-2.9h2V22z"/>
		<path class="st0" d="M212.2,22h-7.7v-1.6l2.7-2.9c0.8-0.9,1.3-1.4,1.6-1.8c0.2-0.3,0.4-0.7,0.5-0.9s0.2-0.5,0.2-0.9
			s-0.1-0.8-0.3-1s-0.5-0.3-1-0.3c-0.4,0-0.9,0.1-1.2,0.3s-0.9,0.4-1.3,0.9l-1.3-1.4c0.5-0.5,1-0.9,1.3-1c0.3-0.2,0.8-0.3,1.2-0.4
			s0.9-0.1,1.4-0.1c0.7,0,1.3,0.1,1.9,0.3s1,0.7,1.2,1.1c0.3,0.4,0.4,1,0.4,1.5s-0.1,1-0.2,1.4c-0.2,0.4-0.4,0.9-0.9,1.4
			c-0.3,0.4-1,1.1-2,2l-1.4,1.3V20h4.7v2H212.2z"/>
		<path class="st0" d="M220.8,13.4c0,0.7-0.2,1.3-0.7,1.8c-0.4,0.4-1,0.8-1.8,1l0,0c0.9,0.1,1.5,0.3,2,0.8c0.4,0.4,0.7,1,0.7,1.8
			c0,1.1-0.4,1.9-1.2,2.5c-0.8,0.5-1.9,0.9-3.3,0.9c-1.2,0-2.3-0.2-3.2-0.5v-2c0.4,0.2,0.9,0.4,1.4,0.5s1,0.2,1.5,0.2
			c0.8,0,1.3-0.1,1.8-0.4c0.3-0.2,0.5-0.7,0.5-1.3c0-0.5-0.2-0.9-0.7-1.1c-0.4-0.2-1.1-0.3-2-0.3h-0.9v-1.8h0.9
			c0.9,0,1.5-0.1,1.9-0.3s0.5-0.7,0.5-1.2c0-0.9-0.5-1.2-1.5-1.2c-0.3,0-0.8,0.1-1.1,0.2c-0.3,0.1-0.8,0.3-1.2,0.7l-1.1-1.6
			c1-0.8,2.2-1.1,3.6-1.1c1.1,0,2.1,0.2,2.7,0.7C220.4,12,220.8,12.7,220.8,13.4z"/>
	</g>
</g>
<g>
	<g>
		<path class="st1" d="M244,23.8c0,1-0.8,1.8-1.8,1.8h-15.4c-1,0-1.8-0.8-1.8-1.8V9.2c0-1,0.8-1.8,1.8-1.8h15.3c1,0,1.8,0.8,1.8,1.8
			L244,23.8L244,23.8z M230.9,12.8c0-0.2-0.2-0.4-0.4-0.4h-3.6c-0.2,0-0.4,0.2-0.4,0.4v2.2c0,0.2,0.2,0.4,0.4,0.4h3.6
			c0.2,0,0.4-0.2,0.4-0.4V12.8z M230.9,17.1c0-0.2-0.2-0.4-0.4-0.4h-3.6c-0.2,0-0.4,0.2-0.4,0.4v2.2c0,0.2,0.2,0.4,0.4,0.4h3.6
			c0.2,0,0.4-0.2,0.4-0.4V17.1z M230.9,21.5c0-0.2-0.2-0.4-0.4-0.4h-3.6c-0.2,0-0.4,0.2-0.4,0.4v2.2c0,0.2,0.2,0.4,0.4,0.4h3.6
			c0.2,0,0.4-0.2,0.4-0.4V21.5z M236.7,12.8c0-0.2-0.2-0.4-0.4-0.4h-3.6c-0.2,0-0.4,0.2-0.4,0.4v2.2c0,0.2,0.2,0.4,0.4,0.4h3.6
			c0.2,0,0.4-0.2,0.4-0.4V12.8z M236.7,17.1c0-0.2-0.2-0.4-0.4-0.4h-3.6c-0.2,0-0.4,0.2-0.4,0.4v2.2c0,0.2,0.2,0.4,0.4,0.4h3.6
			c0.2,0,0.4-0.2,0.4-0.4V17.1z M236.7,21.5c0-0.2-0.2-0.4-0.4-0.4h-3.6c-0.2,0-0.4,0.2-0.4,0.4v2.2c0,0.2,0.2,0.4,0.4,0.4h3.6
			c0.2,0,0.4-0.2,0.4-0.4V21.5z M242.5,12.8c0-0.2-0.2-0.4-0.4-0.4h-3.6c-0.2,0-0.4,0.2-0.4,0.4v2.2c0,0.2,0.2,0.4,0.4,0.4h3.6
			c0.2,0,0.4-0.2,0.4-0.4V12.8z M242.5,17.1c0-0.2-0.2-0.4-0.4-0.4h-3.6c-0.2,0-0.4,0.2-0.4,0.4v2.2c0,0.2,0.2,0.4,0.4,0.4h3.6
			c0.2,0,0.4-0.2,0.4-0.4V17.1z M242.5,21.5c0-0.2-0.2-0.4-0.4-0.4h-3.6c-0.2,0-0.4,0.2-0.4,0.4v2.2c0,0.2,0.2,0.4,0.4,0.4h3.6
			c0.2,0,0.4-0.2,0.4-0.4V21.5z"/>
	</g>
</g>
<g>
	<g>
		<circle class="st2" cx="259.5" cy="16.5" r="10.5"/>
		<circle class="st3" cx="259.5" cy="16.5" r="8.4"/>
		<circle class="st4" cx="259.5" cy="16.5" r="6.3"/>
	</g>
</g>
<g>
	<g>
		<rect x="349.5" y="14.5" class="st1" width="5" height="12"/>
		<rect x="356.5" y="10.5" class="st2" width="6" height="16"/>
		<rect x="364.5" y="6.5" class="st1" width="5" height="20"/>
	</g>
</g>
<g>
	<g>
		<rect x="374.5" y="8.5" class="st0" width="6" height="18"/>
		<rect x="382.5" y="10.5" class="st0" width="5" height="16"/>
		<rect x="389.5" y="6.5" class="st0" width="5" height="20"/>
		<rect x="374.5" y="8.5" class="st0" width="6" height="18"/>
		<rect x="382.5" y="10.5" class="st0" width="5" height="16"/>
		<rect x="389.5" y="6.5" class="st0" width="5" height="20"/>
		<rect x="374.5" y="14.5" class="st1" width="6" height="12"/>
		<rect x="382.5" y="16.5" class="st1" width="5" height="10"/>
		<rect x="389.5" y="12.5" class="st1" width="5" height="14"/>
	</g>
</g>
<g>
	<g>
		<path class="st1" d="M415.2,24.1c-1.8,1.8-4.2,2.9-6.9,2.9c-5.4,0-9.7-4.4-9.7-9.7s4.4-9.7,9.7-9.7v9.7L415.2,24.1z"/>
		<path class="st5" d="M409.9,15.7V6c5.4,0,9.7,4.4,9.7,9.7H409.9z"/>
		<path class="st6" d="M420.4,17.3c0,2.7-1.1,5.2-2.9,6.9l-6.9-6.9H420.4z"/>
	</g>
</g>
<g>
	<g>
		<path class="st1" d="M468.6,8.4L462,15v10c0,0.3-0.2,0.7-0.5,0.8c-0.1,0-0.2,0.1-0.3,0.1c-0.2,0-0.4-0.1-0.6-0.3l-3.4-3.4
			c-0.2-0.2-0.3-0.4-0.3-0.6v-6.5l-6.6-6.6c-0.3-0.2-0.3-0.6-0.2-0.9s0.4-0.5,0.8-0.5H468c0.3,0,0.7,0.2,0.8,0.5
			C468.9,7.8,468.9,8.1,468.6,8.4z"/>
	</g>
</g>
<g>
	<g>
		<path class="st7" d="M430.4,21.3c1.1,1,2.6,1.7,4.2,1.7c3.4,0,6.1-2.9,6.3-5.9h-6L430.4,21.3z"/>
		<path class="st7" d="M434.9,10.1c0,0-0.2,0-0.3,0c-3.5,0-6.3,2.8-6.3,6.3c0,1.9,0.9,3.6,2.2,4.7l4.5-4.4L434.9,10.1L434.9,10.1z"
			/>
		<path class="st7" d="M434.9,10.1v7h6c0-1,0.1-0.4,0.1-0.5C440.9,13.2,437.9,10.2,434.9,10.1z"/>
		<path class="st2" d="M440.8,17.1c-0.2,3-2.9,5.8-6.3,5.8c-1.6,0-3.1-0.7-4.2-1.7l-3,2.9c1.9,1.7,4.4,3,7.1,3c5.7,0,10.4-5,10.5-10
			L440.8,17.1L440.8,17.1z"/>
		<path class="st4" d="M428.1,16.4c0-3.5,2.9-6.3,6.4-6.3c0.1,0,0.3,0,0.3,0V5.9c0,0-0.2,0-0.3,0c-5.8,0-10.6,4.7-10.6,10.5
			c0,3.1,1.3,5.8,3.4,7.7l3-3C429,20,428.1,18.3,428.1,16.4z"/>
		<path class="st3" d="M440.9,16.6c0,0.1-0.1-0.5-0.1,0.5h4.2c0-1,0.1-0.4,0.1-0.5c0-5.7-4.2-10.6-10.2-10.7v4.2
			C437.9,10.2,440.9,13.2,440.9,16.6z"/>
	</g>
</g>
<g>
	<g>
		<g>
			<polyline class="st8" points="473.8,25.8 478,16.8 487.1,21.8 491.7,10.8 			"/>
		</g>
		<circle class="st1" cx="491.7" cy="10.8" r="3.5"/>
		<circle class="st1" cx="478" cy="17" r="3.5"/>
		<circle class="st1" cx="487.1" cy="21.8" r="3.5"/>
	</g>
</g>
<g>
	<g>
		<g>
			<circle class="st6" cx="500.6" cy="19.4" r="1.8"/>
			<circle class="st6" cx="500.6" cy="25.4" r="1.8"/>
			<circle class="st6" cx="506.6" cy="13.5" r="1.8"/>
			<circle class="st2" cx="506.6" cy="19.4" r="1.8"/>
			<circle class="st2" cx="512.5" cy="7.6" r="1.8"/>
			<circle class="st6" cx="518.4" cy="7.6" r="1.8"/>
			<circle class="st2" cx="512.5" cy="13.5" r="1.8"/>
			<circle class="st6" cx="518.4" cy="13.5" r="1.8"/>
			<circle class="st6" cx="512.5" cy="19.4" r="1.8"/>
		</g>
	</g>
</g>
<g>
	<g>
		<g>
			<g>
				<rect x="525" y="21.7" class="st1" width="10.5" height="5.3"/>
				<rect x="525" y="13.8" class="st2" width="14.8" height="5.3"/>
				<rect x="525" y="5.9" class="st1" width="19" height="5.3"/>
			</g>
		</g>
	</g>
</g>
<g>
	<g>
		<path class="st0" d="M561.8,21.1c0-0.1,0-0.2-0.1-0.2l-5.9-12.6c-0.2-0.3-0.6-0.4-0.9-0.3c-0.3,0.1-0.6,0.4-0.4,0.9l2.3,13.8
			c0,0.1,0,0.2,0.1,0.2c0,0.1,0,0.2,0.1,0.3c0.3,1,1.3,1.8,2.5,1.8c0.3,0,0.6,0,0.9-0.1c0.7-0.2,1.2-0.7,1.6-1.3
			c0.3-0.7,0.3-1.3,0.1-2C562,21.3,561.8,21.2,561.8,21.1z"/>
		<path class="st9" d="M559.4,10.1c6,0,10.9,4.8,10.9,10.7"/>
		<path class="st10" d="M548.6,20.9c0-3.2,1.5-6.4,4-8.4"/>
	</g>
</g>
<g>
	<g>
		<g>
			<rect x="324.5" y="17.1" class="st1" width="5" height="9.2"/>
			<rect x="331.5" y="15.2" class="st0" width="6" height="11.2"/>
			<rect x="339.5" y="12.7" class="st1" width="5" height="13.7"/>
		</g>
		<polyline class="st11" points="326,14.8 330.8,10.2 336.3,12.7 343.3,6.6 		"/>
	</g>
</g>
<g>
	<g>
		<path class="st12" d="M598.6,24.5h2.7c0,0,6.6,0.5,8.3-8.1c1.1-5.5,2.1-8.3,7.9-8.7h2.9"/>
		<path class="st13" d="M620.5,25.2h-2.7c0,0-9.7,1.2-12.2-6.7c-1.9-6-7.1-5.6-7.1-5.6"/>
		<path class="st14" d="M599.1,7.7c0,0,3.4,0,6.4,1.6c1.8,1,3.1,3.1,4.6,4.9c4,4.9,9.9,1.5,9.9,1.5"/>
		<g>
			<g>
				<g>
					<line class="st15" x1="599.1" y1="19.2" x2="599.1" y2="26.8"/>
				</g>
			</g>
		</g>
		<g>
			<g>
				<g>
					<line class="st15" x1="599.1" y1="6.2" x2="599.1" y2="14.8"/>
				</g>
			</g>
		</g>
		<g>
			<g>
				<g>
					<line class="st15" x1="620" y1="22.6" x2="620" y2="26.8"/>
				</g>
			</g>
		</g>
		<g>
			<g>
				<g>
					<line class="st15" x1="620" y1="6.2" x2="620" y2="10.1"/>
				</g>
			</g>
		</g>
		<g>
			<g>
				<g>
					<line class="st15" x1="620" y1="13.1" x2="620" y2="19.6"/>
				</g>
			</g>
		</g>
	</g>
</g>
<g>
	<g>
		<g>
			<path class="st1" d="M584.5,16"/>
			<path class="st1" d="M584.5,16"/>
			<g>
				<path class="st1" d="M595,16c0-4.2-2.5-7.9-6.1-9.5l-4.2,9.5l-4.4-9.6C576.6,8,574,11.8,574,16c0,0.1,0,0.2,0,0.3l10.5-0.3v-0.1
					l10.1,2.7C594.9,17.8,595,16.9,595,16z"/>
			</g>
			<g>
				<path class="st1" d="M584.5,16.1l-0.4,0.2l-7.9,6.1c1.9,2.5,4.9,4.1,8.3,4.1c1.8,0,3.5-0.5,4.9-1.3L584.5,16.1z"/>
			</g>
			<g>
				<g>
					<path class="st0" d="M578,18.7c1.1,2.5,3.5,4.3,6.4,4.3c1.2,0,2.3-0.3,3.3-0.8l-3.2-6.1L578,18.7z"/>
					<path class="st0" d="M585,9.1l-0.4,7l-2.9-6.4c-2.5,1.1-4.2,3.5-4.2,6.4c0,0.1,0,0.2,0,0.3l7-0.2V16l0.1,0.1h0.1l0,0l5.5,4.1
						c0.9-1.2,1.4-2.6,1.4-4.2C591.5,12.3,588.6,9.3,585,9.1z"/>
				</g>
			</g>
			<circle class="st16" cx="584.5" cy="16" r="3.5"/>
		</g>
	</g>
</g>
<g>
	<g>
		<g>
			<polyline class="st8" points="274,19.6 282.7,11.5 291.6,19.6 295,17.4 			"/>
		</g>
		<polyline class="st11" points="274,13.7 281.4,25.3 289.5,7.7 295,12.8 		"/>
	</g>
</g>
<g>
	<g>
		<g>
			<g>
				<path class="st11" d="M299.6,16.9c0,0,1.4,0,6.1,6c3.3,4.3,6.4,3.2,6.9-4.4s2.5-13.2,6.7-10"/>
			</g>
		</g>
		<path class="st8" d="M299.6,25.4c0,0,5.6-4.4,9.1-9.8c4.4-6.8,10.6,3.8,10.6,3.8"/>
	</g>
</g>
<g>
	<g>
		<circle class="st1" cx="630.5" cy="19.4" r="3.1"/>
		<circle class="st1" cx="635.3" cy="24.9" r="2.2"/>
		<circle class="st1" cx="624.2" cy="23" r="1.2"/>
		<circle class="st1" cx="643" cy="22.5" r="0.9"/>
		<circle class="st1" cx="625.6" cy="12.9" r="2.4"/>
		<circle class="st1" cx="643" cy="15.9" r="1.8"/>
		<circle class="st1" cx="635.5" cy="10" r="3.7"/>
	</g>
</g>
<g>
	<g>
		<g>
			<g>
				<rect x="649" y="13.8" class="st2" width="20" height="5.3"/>
			</g>
		</g>
	</g>
</g>
<g>
	<g>
		<g>
			<g>
				<rect x="653" y="10.8" class="st0" width="3" height="11.3"/>
			</g>
		</g>
	</g>
</g>
<rect x="675" y="17.5" class="st4" width="8.5" height="8.5"/>
<rect x="675" y="7" class="st1" width="8.5" height="8.5"/>
<rect x="685.5" y="7" class="st0" width="8.5" height="3"/>
<rect x="691" y="12" class="st6" width="3" height="14"/>
<rect x="685.5" y="12" class="st2" width="3" height="14"/>
</svg>
